<svg data-v-423bf9ae="" xmlns="http://www.w3.org/2000/svg" viewBox="0 0 373 90" class="iconLeft"><!----><!----><!----><g data-v-423bf9ae="" id="fcac5d4c-67e9-4571-a91a-f0db05e4aa4b" fill="#261624" transform="matrix(5.612721889848748,0,0,5.612721889848748,107.74710854004496,-1.5575315116192954)"><path d="M9.11 3.75L5.22 10.16L5.22 13.55L3.84 13.55L3.84 10.14L-0.06 3.75L1.44 3.75L4.58 8.92L7.73 3.75L9.11 3.75ZM15.90 6.13L17.25 6.13L17.25 13.55L15.97 13.55L15.97 12.43L15.97 12.43Q15.57 13.01 14.90 13.32L14.90 13.32L14.90 13.32Q14.24 13.64 13.45 13.64L13.45 13.64L13.45 13.64Q11.97 13.64 11.12 12.82L11.12 12.82L11.12 12.82Q10.26 12.00 10.26 10.40L10.26 10.40L10.26 6.13L11.61 6.13L11.61 10.25L11.61 10.25Q11.61 11.33 12.12 11.88L12.12 11.88L12.12 11.88Q12.64 12.43 13.61 12.43L13.61 12.43L13.61 12.43Q14.67 12.43 15.29 11.79L15.29 11.79L15.29 11.79Q15.90 11.14 15.90 9.97L15.90 9.97L15.90 6.13ZM23.56 12.15L23.98 13.12L23.98 13.12Q23.69 13.37 23.25 13.50L23.25 13.50L23.25 13.50Q22.82 13.64 22.36 13.64L22.36 13.64L22.36 13.64Q21.24 13.64 20.62 13.03L20.62 13.03L20.62 13.03Q20.01 12.43 20.01 11.31L20.01 11.31L20.01 7.24L18.75 7.24L18.75 6.13L20.01 6.13L20.01 4.51L21.35 4.51L21.35 6.13L23.48 6.13L23.48 7.24L21.35 7.24L21.35 11.26L21.35 11.26Q21.35 11.86 21.65 12.18L21.65 12.18L21.65 12.18Q21.95 12.50 22.51 12.50L22.51 12.50L22.51 12.50Q23.13 12.50 23.56 12.15L23.56 12.15ZM29.36 12.15L29.78 13.12L29.78 13.12Q29.48 13.37 29.05 13.50L29.05 13.50L29.05 13.50Q28.62 13.64 28.15 13.64L28.15 13.64L28.15 13.64Q27.03 13.64 26.42 13.03L26.42 13.03L26.42 13.03Q25.80 12.43 25.80 11.31L25.80 11.31L25.80 7.24L24.54 7.24L24.54 6.13L25.80 6.13L25.80 4.51L27.15 4.51L27.15 6.13L29.27 6.13L29.27 7.24L27.15 7.24L27.15 11.26L27.15 11.26Q27.15 11.86 27.45 12.18L27.45 12.18L27.45 12.18Q27.75 12.50 28.31 12.50L28.31 12.50L28.31 12.50Q28.92 12.50 29.36 12.15L29.36 12.15ZM34.10 6.06L34.10 6.06Q35.64 6.06 36.46 6.82L36.46 6.82L36.46 6.82Q37.28 7.57 37.28 9.07L37.28 9.07L37.28 13.55L36.01 13.55L36.01 12.57L36.01 12.57Q35.67 13.09 35.05 13.36L35.05 13.36L35.05 13.36Q34.43 13.64 33.57 13.64L33.57 13.64L33.57 13.64Q32.33 13.64 31.58 13.03L31.58 13.03L31.58 13.03Q30.83 12.43 30.83 11.45L30.83 11.45L30.83 11.45Q30.83 10.47 31.54 9.88L31.54 9.88L31.54 9.88Q32.26 9.28 33.81 9.28L33.81 9.28L35.94 9.28L35.94 9.02L35.94 9.02Q35.94 8.15 35.43 7.69L35.43 7.69L35.43 7.69Q34.93 7.22 33.95 7.22L33.95 7.22L33.95 7.22Q33.29 7.22 32.66 7.44L32.66 7.44L32.66 7.44Q32.03 7.66 31.60 8.02L31.60 8.02L31.04 7.01L31.04 7.01Q31.61 6.55 32.41 6.31L32.41 6.31L32.41 6.31Q33.21 6.06 34.10 6.06L34.10 6.06ZM33.80 12.60L33.80 12.60Q34.57 12.60 35.13 12.26L35.13 12.26L35.13 12.26Q35.69 11.91 35.94 11.28L35.94 11.28L35.94 10.25L33.87 10.25L33.87 10.25Q32.16 10.25 32.16 11.40L32.16 11.40L32.16 11.40Q32.16 11.96 32.59 12.28L32.59 12.28L32.59 12.28Q33.03 12.60 33.80 12.60L33.80 12.60ZM41.06 7.38L41.06 7.38Q41.41 6.73 42.10 6.40L42.10 6.40L42.10 6.40Q42.78 6.06 43.76 6.06L43.76 6.06L43.76 7.36L43.76 7.36Q43.65 7.35 43.46 7.35L43.46 7.35L43.46 7.35Q42.36 7.35 41.74 8.00L41.74 8.00L41.74 8.00Q41.12 8.65 41.12 9.86L41.12 9.86L41.12 13.55L39.77 13.55L39.77 6.13L41.06 6.13L41.06 7.38ZM45.51 13.55L45.51 6.13L46.86 6.13L46.86 13.55L45.51 13.55ZM46.19 4.70L46.19 4.70Q45.79 4.70 45.54 4.45L45.54 4.45L45.54 4.45Q45.28 4.20 45.28 3.84L45.28 3.84L45.28 3.84Q45.28 3.47 45.54 3.21L45.54 3.21L45.54 3.21Q45.79 2.95 46.19 2.95L46.19 2.95L46.19 2.95Q46.58 2.95 46.84 3.20L46.84 3.20L46.84 3.20Q47.10 3.44 47.10 3.81L47.10 3.81L47.10 3.81Q47.10 4.19 46.84 4.45L46.84 4.45L46.84 4.45Q46.58 4.70 46.19 4.70L46.19 4.70Z"></path></g><defs data-v-423bf9ae=""><linearGradient data-v-423bf9ae="" gradientTransform="rotate(25)" id="1203b012-47cd-4636-8f49-b82e7b484946" x1="0%" y1="0%" x2="100%" y2="0%"><stop data-v-423bf9ae="" offset="0%" style="stop-color: rgb(233, 140, 0); stop-opacity: 1;"></stop><stop data-v-423bf9ae="" offset="100%" style="stop-color: rgb(143, 91, 254); stop-opacity: 1;"></stop></linearGradient></defs><g data-v-423bf9ae="" id="ae638b44-716d-4b8e-bd38-3f2853bc4a87" transform="matrix(1.3596457964841977,0,0,1.3596457964841977,-24.126994925721434,-22.079092854070325)" stroke="none" fill="url(#1203b012-47cd-4636-8f49-b82e7b484946)"><path d="M82.145 49.047c0-17.752-14.393-32.144-32.144-32.144-17.753 0-32.145 14.392-32.145 32.144a31.982 31.982 0 0 0 5.743 18.328c.001.002 2.328 9.318-5.743 13.816 0 0 22.415 5.006 40.855-1.209a32.16 32.16 0 0 0 16.482-10.986c.088-.107.172-.221.256-.331a33.405 33.405 0 0 0 1.409-1.956l-.004.002a31.969 31.969 0 0 0 5.291-17.664zM54.781 72.373c-2.641 0-4.781-2.2-4.781-4.914 0-2.715 2.14-4.914 4.781-4.914s4.779 2.199 4.779 4.914c.001 2.714-2.138 4.914-4.779 4.914zm17.145-15.218s-4.279 4.889-7.609 0c-3.674-5.397 7.24-5.589-3.273-23.013 0 0-1.742-3.373-.064-4.435l-.008-.012s3.986-4.365 10.303 7.757c.002.002 0-.001 0 0 2.797 4.921 4.159 12.053.651 19.703z"></path></g><!----></svg>