<svg data-v-fde0c5aa="" xmlns="http://www.w3.org/2000/svg" viewBox="0 0 300 300" class="font"><!----><defs data-v-fde0c5aa=""><!----></defs><rect data-v-fde0c5aa="" fill="#F3E9F1" x="0" y="0" width="300px" height="300px" class="logo-background-square"></rect><defs data-v-fde0c5aa=""><linearGradient data-v-fde0c5aa="" gradientTransform="rotate(25)" id="66bf3754-d361-4a36-94bf-796f91945455" x1="0%" y1="0%" x2="100%" y2="0%"><stop data-v-fde0c5aa="" offset="0%" stop-color="#E98C00" stop-opacity="1"></stop><stop data-v-fde0c5aa="" offset="100%" stop-color="#8F5BFE" stop-opacity="1"></stop></linearGradient></defs><g data-v-fde0c5aa="" id="2c5bf6ee-1065-40a1-bb4a-6efdb6e3be31" fill="url(#66bf3754-d361-4a36-94bf-796f91945455)" transform="matrix(4.664970328918956,0,0,4.664970328918956,40.27989823085729,111.30406965349266)"><path d="M9.11 3.75L5.22 10.16L5.22 13.55L3.84 13.55L3.84 10.14L-0.06 3.75L1.44 3.75L4.58 8.92L7.73 3.75L9.11 3.75ZM15.90 6.13L17.25 6.13L17.25 13.55L15.97 13.55L15.97 12.43L15.97 12.43Q15.57 13.01 14.90 13.32L14.90 13.32L14.90 13.32Q14.24 13.64 13.45 13.64L13.45 13.64L13.45 13.64Q11.97 13.64 11.12 12.82L11.12 12.82L11.12 12.82Q10.26 12.00 10.26 10.40L10.26 10.40L10.26 6.13L11.61 6.13L11.61 10.25L11.61 10.25Q11.61 11.33 12.12 11.88L12.12 11.88L12.12 11.88Q12.64 12.43 13.61 12.43L13.61 12.43L13.61 12.43Q14.67 12.43 15.29 11.79L15.29 11.79L15.29 11.79Q15.90 11.14 15.90 9.97L15.90 9.97L15.90 6.13ZM23.56 12.15L23.98 13.12L23.98 13.12Q23.69 13.37 23.25 13.50L23.25 13.50L23.25 13.50Q22.82 13.64 22.36 13.64L22.36 13.64L22.36 13.64Q21.24 13.64 20.62 13.03L20.62 13.03L20.62 13.03Q20.01 12.43 20.01 11.31L20.01 11.31L20.01 7.24L18.75 7.24L18.75 6.13L20.01 6.13L20.01 4.51L21.35 4.51L21.35 6.13L23.48 6.13L23.48 7.24L21.35 7.24L21.35 11.26L21.35 11.26Q21.35 11.86 21.65 12.18L21.65 12.18L21.65 12.18Q21.95 12.50 22.51 12.50L22.51 12.50L22.51 12.50Q23.13 12.50 23.56 12.15L23.56 12.15ZM29.36 12.15L29.78 13.12L29.78 13.12Q29.48 13.37 29.05 13.50L29.05 13.50L29.05 13.50Q28.62 13.64 28.15 13.64L28.15 13.64L28.15 13.64Q27.03 13.64 26.42 13.03L26.42 13.03L26.42 13.03Q25.80 12.43 25.80 11.31L25.80 11.31L25.80 7.24L24.54 7.24L24.54 6.13L25.80 6.13L25.80 4.51L27.15 4.51L27.15 6.13L29.27 6.13L29.27 7.24L27.15 7.24L27.15 11.26L27.15 11.26Q27.15 11.86 27.45 12.18L27.45 12.18L27.45 12.18Q27.75 12.50 28.31 12.50L28.31 12.50L28.31 12.50Q28.92 12.50 29.36 12.15L29.36 12.15ZM34.10 6.06L34.10 6.06Q35.64 6.06 36.46 6.82L36.46 6.82L36.46 6.82Q37.28 7.57 37.28 9.07L37.28 9.07L37.28 13.55L36.01 13.55L36.01 12.57L36.01 12.57Q35.67 13.09 35.05 13.36L35.05 13.36L35.05 13.36Q34.43 13.64 33.57 13.64L33.57 13.64L33.57 13.64Q32.33 13.64 31.58 13.03L31.58 13.03L31.58 13.03Q30.83 12.43 30.83 11.45L30.83 11.45L30.83 11.45Q30.83 10.47 31.54 9.88L31.54 9.88L31.54 9.88Q32.26 9.28 33.81 9.28L33.81 9.28L35.94 9.28L35.94 9.02L35.94 9.02Q35.94 8.15 35.43 7.69L35.43 7.69L35.43 7.69Q34.93 7.22 33.95 7.22L33.95 7.22L33.95 7.22Q33.29 7.22 32.66 7.44L32.66 7.44L32.66 7.44Q32.03 7.66 31.60 8.02L31.60 8.02L31.04 7.01L31.04 7.01Q31.61 6.55 32.41 6.31L32.41 6.31L32.41 6.31Q33.21 6.06 34.10 6.06L34.10 6.06ZM33.80 12.60L33.80 12.60Q34.57 12.60 35.13 12.26L35.13 12.26L35.13 12.26Q35.69 11.91 35.94 11.28L35.94 11.28L35.94 10.25L33.87 10.25L33.87 10.25Q32.16 10.25 32.16 11.40L32.16 11.40L32.16 11.40Q32.16 11.96 32.59 12.28L32.59 12.28L32.59 12.28Q33.03 12.60 33.80 12.60L33.80 12.60ZM41.06 7.38L41.06 7.38Q41.41 6.73 42.10 6.40L42.10 6.40L42.10 6.40Q42.78 6.06 43.76 6.06L43.76 6.06L43.76 7.36L43.76 7.36Q43.65 7.35 43.46 7.35L43.46 7.35L43.46 7.35Q42.36 7.35 41.74 8.00L41.74 8.00L41.74 8.00Q41.12 8.65 41.12 9.86L41.12 9.86L41.12 13.55L39.77 13.55L39.77 6.13L41.06 6.13L41.06 7.38ZM45.51 13.55L45.51 6.13L46.86 6.13L46.86 13.55L45.51 13.55ZM46.19 4.70L46.19 4.70Q45.79 4.70 45.54 4.45L45.54 4.45L45.54 4.45Q45.28 4.20 45.28 3.84L45.28 3.84L45.28 3.84Q45.28 3.47 45.54 3.21L45.54 3.21L45.54 3.21Q45.79 2.95 46.19 2.95L46.19 2.95L46.19 2.95Q46.58 2.95 46.84 3.20L46.84 3.20L46.84 3.20Q47.10 3.44 47.10 3.81L47.10 3.81L47.10 3.81Q47.10 4.19 46.84 4.45L46.84 4.45L46.84 4.45Q46.58 4.70 46.19 4.70L46.19 4.70Z"></path></g><!----><!----></svg>